PathFileType	4	(X/Y/Z)	C:/Users/beibeiliu/ov580/test_trc\sequence.30_training_dense_right.trc
DataRate	CameraRate	NumFrames	NumMarkers	Units	OrigDataRate	OrigDataStartFrame	OrigNumFrames
120	120	8	19	mm	120	222	354
Frame#	Time	ThumbCMC			ThumbMCP			ThumbIP			ThumbTip			IndexMCP			IndexPIP			IndexTip			MiddleMCP			MiddlePIP			MiddleTip			RingMCP			RingPIP			RingTip			PinkyMCP			PinkyPIP			PinkyTip			BackHand1			BackHand2			BackHand3	
		X0	Y0	Z0	X1	Y1	Z1	X2	Y2	Z2	X3	Y3	Z3	X4	Y4	Z4	X5	Y5	Z5	X6	Y6	Z6	X7	Y7	Z7	X8	Y8	Z8	X9	Y9	Z9	X10	Y10	Z10	X11	Y11	Z11	X12	Y12	Z12	X13	Y13	Z13	X14	Y14	Z14	X15	Y15	Z15	X16	Y16	Z16	X17	Y17	Z17	X18	Y18	Z18	
221	1.84167	142.537	-13.2739	51.4286	137.85	-18.5953	24.019	135.93	-14.154	3.05146	132.073	-10.55	-19.4544	148.409	32.1132	-0.927247	151.176	36.5369	-19.7564	149.426	43.2815	-41.973	173.055	23.9117	-5.23664	177.069	-4.81714	-19.7374	177.6	-21.9712	5.43206	188.751	34.3873	5.99799	194.613	34.2637	-21.791	193.536	27.5206	-41.3852	207.799	35.1446	26.2582	210.617	45.0398	13.8912	219.164	59.6765	9.41287	180.662	26.9351	53.9441	177.76	14.3719	75.977	155.362	17.8053	59.9847	
222	1.85	142.351	-14.2843	50.6666	139.153	-19.3529	26.6489	132.343	-15.4619	0.210916	130.474	-16.5886	-16.7294	146.845	28.3772	-2.17063	150.964	34.5881	-23.1754	149.401	38.9388	-41.4543	170.145	21.1024	-5.44855	177.255	-7.01672	-20.7013	176.47	-26.0901	2.01543	187.136	32.7104	0.953466	193.271	30.8935	-20.604	195.968	24.2946	-44.3771	207.454	35.4521	22.8523	212.009	45.4553	11.9799	214.206	57.5801	7.1058	182.141	26.0625	52.2562	178.253	15.4362	72.5101	152.813	15.6739	55.9935	
223	1.85833	144.726	-15.0421	51.8779	137.026	-19.2078	22.9895	134.946	-18.8812	5.08084	128.728	-17.5864	-20.7381	145.209	25.3973	-1.18213	144.816	31.0226	-22.5077	150.378	37.3997	-45.3654	170.364	17.4366	-9.56366	180.089	-9.33556	-20.6317	178.548	-28.1179	0.30508	189.646	31.2678	-0.723472	191.941	28.3648	-22.995	197.117	22.6962	-44.8157	203.715	28.879	25.206	211.31	43.5358	10.9109	219.994	57.8209	5.02573	178.595	24.1772	51.1926	177.01	16.0867	73.2742	153.087	14.6452	59.2586	
224	1.86667	141.026	-16.4213	52.6755	138.702	-19.387	23.8321	134.531	-19.5632	3.62239	128.488	-21.8065	-16.907	146.202	24.4999	-2.39838	146.798	28.8633	-23.6066	147.765	35.0274	-47.2226	169.538	17.6011	-9.11123	182.139	-9.32904	-22.1364	178.719	-30.9846	-1.42278	189.613	28.3387	4.6226	194.423	27.9611	-22.7378	195.763	20.7439	-44.5179	204.871	30.1144	23.0085	209.853	41.0478	10.8711	216.722	53.8732	6.10208	181.37	23.8831	47.7548	179.127	13.1507	71.7919	155.017	14.7136	58.5923	
225	1.875	140.499	-16.5531	51.3187	136.882	-23.7833	25.8834	132.976	-20.7548	2.5319	128.303	-22.9535	-16.6259	147.304	24.3902	-1.7997	143.231	27.5127	-25.588	149.451	33.1289	-45.3702	170.974	16.7136	-9.79013	177.297	-8.07885	-24.934	179.659	-30.9603	-6.24494	190.236	28.9407	0.0169851	190.94	26.5395	-20.9676	200.515	23.5162	-41.2591	202.703	30.6751	20.8103	213.994	38.6603	13.6913	218.127	56.5361	4.94733	177.893	21.0428	46.0335	180.428	13.5769	72.154	152.824	13.234	59.0854	
226	1.88333	143.213	-17.6317	54.8336	135.314	-22.6193	22.6445	132.166	-22.7154	3.8884	126.062	-23.2607	-17.5773	144.151	21.5058	0.306632	147.515	28.0769	-23.6613	149.583	32.8307	-43.3337	174.173	17.6984	-10.4408	177.819	-6.99471	-25.988	181.268	-30.4311	-6.23569	188.617	28.6261	-0.302104	193.332	27.8473	-18.7213	197.606	24.1534	-39.918	203.385	27.1354	24.4466	210.303	38.1241	12.1034	215.806	53.1437	7.83129	180.994	24.3094	47.8142	176.428	11.6913	73.9381	152.948	11.9469	56.9285	
227	1.89167	143.135	-16.1167	54.5738	134.991	-23.7349	24.695	134.003	-19.7834	2.15789	129.747	-21.5087	-14.1805	148.056	25.3026	-3.36182	147.242	29.489	-27.006	149.312	33.2696	-45.9777	174.153	19.2774	-9.84337	178.549	-4.81799	-26.0537	181.682	-29.262	-7.44722	188.869	29.0626	0.497307	192.409	29.1138	-20.4059	201.195	25.6704	-43.166	204.276	29.0098	22.8256	212.434	40.5163	11.1383	219.988	53.7003	6.532	180.318	23.0164	48.4036	176.502	12.9457	75.1044	155.674	13.6719	60.0083	
228	1.9	138.232	-14.7237	50.0215	133.76	-22.5526	26.1486	133.883	-17.5605	2.53374	128.47	-19.6131	-17.2469	148.587	24.7966	-0.741595	147.356	29.8462	-21.8402	146.337	34.4892	-48.3582	174.183	20.5332	-5.82274	179.772	-2.08553	-25.3945	179.053	-29.9352	-8.33357	187.105	28.344	4.59739	196.255	29.9922	-21.2569	199.718	26.3536	-43.6926	207.427	27.7042	25.8767	211.613	37.1734	14.6964	216.209	55.0277	5.98297	178.836	22.7433	51.2673	175.642	14.1593	74.1754	150.957	15.4776	55.9153	
